<?xml version="1.0" standalone="no"?>
<!DOCTYPE svg PUBLIC "-//W3C//DTD SVG 20010904//EN"
 "http://www.w3.org/TR/2001/REC-SVG-20010904/DTD/svg10.dtd">
<svg version="1.0" xmlns="http://www.w3.org/2000/svg"
 width="16.000000pt" height="16.000000pt" viewBox="0 0 16.000000 16.000000"
 preserveAspectRatio="xMidYMid meet">
<metadata>
Created by potrace 1.11, written by Peter Selinger 2001-2013
</metadata>
<g transform="translate(0.000000,16.000000) scale(0.005654,-0.005654)"
fill="#000000" stroke="none">
<path d="M1485 2680 c33 -35 51 -59 40 -55 -94 36 -126 44 -229 52 -73 6 -75
3 -38 -40 22 -25 12 -28 -47 -12 -44 11 -132 13 -198 3 -18 -2 -16 -7 10 -30
20 -18 20 -19 2 -13 -11 4 -36 11 -55 15 l-35 9 34 -29 c33 -28 33 -29 10 -27
-43 3 -129 -35 -129 -57 0 -3 8 -3 18 0 9 4 3 -3 -14 -14 -32 -21 -107 -103
-100 -110 3 -2 15 3 28 12 37 26 41 18 10 -21 -45 -58 -70 -115 -42 -98 12 7
38 12 100 19 45 4 45 4 20 -12 -43 -29 -100 -84 -100 -97 0 -9 13 -7 51 5 41
14 60 29 94 72 107 136 258 209 440 211 100 2 153 -6 229 -32 93 -33 149 -69
247 -159 51 -48 61 -53 98 -51 23 2 41 5 41 7 0 3 -11 15 -26 28 -14 13 -21
24 -17 25 4 0 26 2 47 5 22 2 41 6 43 8 7 6 -79 62 -112 73 -24 8 -31 17 -37
49 -9 57 -26 95 -50 115 -25 22 -34 18 -43 -20 -8 -38 -35 -63 -35 -33 0 30
29 114 46 133 20 23 17 30 -9 24 -13 -4 -30 -7 -38 -8 -8 -2 -18 -5 -24 -8
-26 -15 -65 -19 -65 -6 0 15 -65 80 -98 97 -24 12 -30 13 -92 26 l-35 7 60
-63z"/>
<path d="M1326 2433 c-1 -1 -22 -5 -47 -7 -66 -7 -199 -53 -199 -68 0 -4 -7
-8 -15 -8 -24 0 -147 -129 -174 -182 -15 -30 -24 -68 -26 -106 -2 -32 -6 -69
-10 -80 -9 -31 18 -29 35 2 34 65 161 157 260 189 88 29 129 36 237 37 206 3
393 -80 491 -218 31 -44 42 -45 36 -2 -2 14 -4 48 -4 76 0 78 -51 151 -180
257 -25 21 -112 64 -162 81 -55 18 -231 39 -242 29z"/>
<path d="M1224 2158 c-16 -4 -38 -10 -49 -12 -31 -6 -133 -55 -141 -68 -5 -7
-3 -8 6 -3 6 4 58 7 115 7 95 0 104 2 129 24 36 34 35 65 -2 62 -16 -1 -42 -6
-58 -10z"/>
<path d="M1446 2154 c3 -11 14 -30 24 -44 18 -24 24 -25 125 -27 59 -1 113 -4
121 -7 8 -3 12 -2 9 3 -7 13 -64 41 -82 41 -7 0 -13 5 -13 11 0 5 -3 8 -7 6
-5 -3 -19 0 -33 6 -32 13 -45 16 -102 23 -42 6 -46 5 -42 -12z"/>
<path d="M1380 2140 c-12 -8 -12 -10 -1 -10 11 0 11 -3 1 -15 -7 -9 -10 -18
-6 -22 3 -3 6 -1 6 6 0 7 4 10 9 6 5 -3 12 -1 15 4 4 5 2 12 -4 16 -6 4 -8 11
-5 16 8 11 4 11 -15 -1z"/>
<path d="M1118 2032 c-34 -7 -14 -40 22 -36 61 6 87 6 115 0 29 -7 28 -6 -7
13 -36 21 -96 31 -130 23z"/>
<path d="M1585 2032 c-38 -7 -85 -24 -85 -30 0 -4 27 -5 59 -4 44 3 72 -2 106
-17 29 -13 43 -16 36 -8 -6 8 -8 16 -5 20 3 3 -3 3 -14 0 -16 -4 -21 1 -24 18
-3 23 -26 30 -73 21z"/>
<path d="M879 1940 c-34 -33 -59 -60 -55 -60 4 0 -4 -15 -18 -33 -15 -19 -26
-39 -26 -45 0 -7 -5 -12 -12 -12 -6 0 -9 -3 -6 -6 4 -3 -4 -29 -17 -58 -21
-48 -41 -112 -51 -159 -9 -52 -46 -137 -76 -180 l-20 -28 28 3 c16 2 28 -1 28
-7 -1 -5 -5 -32 -9 -60 -3 -27 -16 -65 -28 -84 -19 -31 -19 -34 -3 -28 16 6
18 2 12 -41 -7 -61 -37 -149 -68 -198 -44 -70 -43 -67 -19 -55 29 16 26 1 -9
-47 l-30 -42 32 -1 c18 0 27 -3 21 -6 -7 -2 -13 -9 -13 -14 0 -6 -16 -25 -36
-43 l-37 -34 32 -7 c18 -4 35 -14 39 -23 4 -10 13 -17 21 -17 8 0 16 -11 17
-25 6 -39 35 -110 45 -110 5 0 9 -7 9 -15 0 -8 5 -15 11 -15 7 0 9 10 5 27
l-6 28 20 -25 c60 -74 79 -93 115 -118 22 -15 43 -31 47 -37 5 -6 8 -6 8 1 0
6 -9 23 -20 37 -11 14 -20 30 -20 36 0 6 -4 11 -9 11 -5 0 -11 11 -13 24 -5
23 -5 23 39 -6 45 -31 48 -39 43 -128 -2 -44 6 -36 30 26 l18 49 8 -39 c4 -24
2 -52 -4 -70 -7 -16 -10 -32 -8 -34 3 -2 24 16 48 40 l43 43 35 -37 c41 -44
53 -47 44 -14 -16 63 36 50 66 -17 10 -23 22 -51 25 -62 6 -19 7 -19 19 3 13
24 13 23 52 -30 36 -49 39 -51 42 -28 6 44 18 42 71 -11 l51 -53 55 57 c30 31
55 56 56 54 0 -1 2 -12 3 -24 4 -32 16 -41 29 -22 7 8 24 31 40 50 26 33 27
33 33 11 8 -29 24 -29 24 1 0 33 42 99 69 109 23 8 23 7 18 -27 -3 -19 -4 -35
-1 -35 2 0 21 16 43 35 l39 35 42 -40 c23 -23 45 -38 48 -35 3 3 0 11 -6 17
-13 13 -17 108 -4 108 5 0 15 -16 22 -35 25 -64 35 -59 32 16 -3 58 -1 69 12
69 9 0 16 4 16 9 0 5 8 11 18 15 9 3 23 9 30 12 8 4 10 0 5 -13 -3 -10 -9 -20
-13 -23 -7 -6 -50 -79 -50 -86 0 -18 135 104 173 156 l18 25 -4 -28 c-2 -15
-1 -27 3 -27 12 0 57 93 64 133 6 32 10 37 27 32 21 -7 27 10 7 18 -7 3 2 8
19 12 31 7 67 35 45 35 -13 0 -72 58 -72 71 0 5 11 9 26 9 l25 0 -25 33 c-31
40 -35 70 -8 60 13 -5 11 1 -9 28 -59 78 -105 247 -71 260 12 4 12 8 -2 22
-10 9 -14 17 -10 17 3 0 1 6 -5 14 -6 7 -12 32 -14 55 -1 22 -5 41 -9 41 -3 0
-4 9 -1 21 5 16 11 19 30 14 26 -6 26 -4 -8 46 -24 34 -56 116 -63 161 -13 81
-94 272 -123 291 -7 4 -13 14 -13 22 0 14 -107 115 -122 115 -5 0 -8 -13 -8
-30 0 -94 0 -97 -12 -72 -17 35 -23 26 -24 -35 -1 -50 -4 -59 -33 -85 -17 -15
-42 -28 -56 -28 -35 0 -39 -16 -7 -29 15 -5 41 -22 57 -37 33 -29 20 -29 -47
0 -23 10 -39 12 -43 6 -3 -6 0 -10 7 -10 22 0 74 -60 102 -116 34 -68 33 -72
-6 -28 -42 48 -106 76 -182 80 -78 4 -99 9 -136 31 -33 19 -39 33 -15 33 9 0
29 7 44 15 51 26 50 66 -1 84 -16 6 -27 15 -24 20 4 5 2 12 -4 16 -6 4 -8 11
-5 16 4 5 1 9 -5 9 -11 0 -2 -53 10 -58 4 -1 15 -9 25 -16 17 -12 16 -14 -10
-38 -33 -31 -85 -33 -127 -4 -34 22 -35 34 -4 46 17 6 25 18 28 44 2 20 1 36
-3 36 -4 0 -9 -15 -11 -32 -2 -18 -7 -32 -11 -30 -4 1 -14 -4 -22 -12 -8 -8
-20 -16 -27 -18 -10 -4 -10 -10 -1 -31 8 -17 25 -30 53 -38 44 -13 51 -24 20
-34 -11 -3 -20 -10 -20 -15 0 -8 -69 -21 -141 -25 -64 -4 -139 -39 -169 -80
-14 -18 -27 -32 -28 -30 -10 10 55 116 94 153 25 23 42 42 37 42 -5 0 -14 -5
-21 -12 -7 -7 -12 -9 -12 -5 0 4 -19 -2 -42 -14 -39 -20 -42 -20 -28 -3 21 26
40 41 78 59 17 9 32 17 32 18 0 2 -14 4 -31 5 -65 5 -100 45 -105 120 -3 69
-4 70 -19 32 l-14 -35 0 50 c1 75 0 85 -10 85 -5 0 -37 -27 -72 -60z m34 -475
c7 -28 62 -127 83 -150 13 -14 24 -28 24 -31 0 -26 -91 62 -137 133 -34 54
-37 56 -45 33 -10 -26 -25 -18 -33 18 -3 12 -7 32 -10 45 -3 12 -7 33 -10 47
l-4 25 18 -22 18 -21 23 46 23 47 24 -80 c13 -44 25 -84 26 -90z m1029 118
c19 -44 21 -45 34 -28 13 18 14 17 11 -11 -2 -16 -6 -34 -9 -40 -4 -5 -9 -26
-13 -46 -7 -38 -25 -43 -25 -7 0 31 -13 22 -42 -29 -33 -55 -69 -96 -123 -137
-39 -28 -36 -20 10 32 32 36 88 154 100 208 12 59 26 105 31 105 3 0 14 -21
26 -47z m-462 -31 l64 -19 -64 -10 c-71 -12 -187 -9 -235 6 -16 5 -23 10 -15
11 18 2 31 5 95 24 56 16 63 15 155 -12z m-242 -60 c47 -36 93 -49 159 -46 54
3 119 30 142 58 19 23 42 20 74 -9 35 -33 54 -71 62 -125 4 -25 9 -48 11 -52
3 -5 3 -8 0 -8 -3 0 -15 19 -27 43 -23 43 -57 80 -68 72 -4 -2 -8 -25 -10 -51
-3 -71 -51 -151 -51 -87 0 17 -12 43 -30 63 l-29 35 -1 -46 c0 -68 -32 -133
-76 -157 -42 -22 -104 68 -106 156 l-1 43 -22 -21 c-12 -11 -28 -39 -34 -62
-11 -37 -14 -39 -25 -22 -17 24 -33 91 -31 127 1 15 -2 27 -7 27 -13 0 -56
-49 -63 -71 -4 -11 -12 -19 -20 -19 -11 0 -11 8 1 47 16 52 33 82 66 113 29
27 42 25 86 -8z m-159 -409 c-7 -7 -13 -47 -14 -88 -2 -77 -19 -115 -53 -115
-9 0 -7 6 8 18 20 16 23 27 22 90 0 40 -3 80 -6 89 -5 15 0 18 24 19 25 1 29
-1 19 -13z m212 -13 c26 -27 36 -56 29 -85 -4 -20 -8 -40 -9 -45 -2 -11 -58
-39 -89 -45 -66 -11 -119 46 -108 115 13 85 119 121 177 60z m119 21 c0 -4 -3
-11 -7 -15 -12 -11 -11 -56 1 -57 93 -8 96 -7 96 26 0 17 -4 35 -10 41 -6 6 4
9 25 10 29 1 33 -2 23 -13 -6 -8 -12 -48 -12 -89 -1 -58 2 -77 14 -84 11 -7 3
-9 -25 -10 -22 0 -35 4 -29 8 12 7 17 31 15 68 -1 19 -7 22 -51 23 -27 0 -51
-4 -51 -9 -6 -42 -4 -58 6 -75 12 -19 11 -20 -22 -17 -20 3 -30 8 -23 12 7 4
11 36 10 91 -1 46 -1 86 -1 89 1 9 41 10 41 1z m243 -23 c13 -18 33 -43 43
-55 11 -12 28 -32 39 -45 l19 -23 6 25 c4 14 4 29 1 35 -3 5 -4 23 -2 38 1 15
-3 35 -10 43 -11 13 -9 15 14 12 27 -4 50 -18 29 -18 -8 0 -12 -28 -12 -90 0
-65 -3 -90 -12 -90 -7 0 -35 29 -63 65 -27 35 -55 65 -61 65 -14 0 -10 -105 4
-123 9 -10 4 -12 -25 -9 -26 3 -32 7 -21 13 12 7 14 27 12 99 -1 49 1 90 6 90
4 0 19 -15 33 -32z m-785 -276 c-6 -7 -11 -44 -13 -83 -2 -74 -16 -100 -54
-98 -14 0 -14 1 -1 6 28 11 36 35 34 105 -1 46 -7 74 -16 79 -8 6 0 8 24 6 28
-1 34 -5 26 -15z m167 -66 c19 -44 40 -83 46 -86 6 -4 7 -10 3 -12 -10 -6 -46
5 -44 12 1 3 -3 17 -9 33 -9 22 -17 27 -43 27 -26 0 -36 -6 -45 -26 -6 -14
-10 -31 -7 -37 2 -7 -6 -12 -21 -12 -14 0 -25 3 -25 8 0 4 5 7 10 7 10 0 42
63 70 138 7 18 17 31 22 30 5 -2 24 -39 43 -82z m202 78 c29 -8 35 -48 12 -73
-25 -26 -24 -31 10 -69 16 -17 26 -34 21 -37 -9 -6 -70 51 -70 66 0 5 -7 9
-17 9 -9 0 -13 3 -9 8 4 4 9 5 10 2 4 -7 31 22 38 41 8 21 -6 42 -28 45 -27 4
-32 -11 -33 -88 0 -58 2 -68 17 -69 14 0 14 -2 -3 -8 -35 -14 -40 -3 -40 89
l0 90 35 0 c19 0 45 -3 57 -6z m218 -21 c11 -45 55 -136 71 -148 12 -9 10 -10
-13 -9 -15 0 -27 4 -25 7 1 4 -5 21 -13 37 -13 24 -22 30 -49 30 -28 0 -35 -4
-42 -27 -4 -16 -7 -32 -6 -38 1 -5 -9 -10 -23 -10 -27 0 -33 10 -11 18 12 5
49 73 61 112 14 46 19 55 30 55 7 0 16 -12 20 -27z m155 20 c0 -8 18 -30 81
-101 23 -27 29 -30 30 -15 3 50 1 81 -5 101 -6 19 -4 22 21 21 15 0 22 -3 16
-6 -9 -3 -13 -31 -13 -89 0 -99 -9 -105 -60 -37 -40 53 -59 73 -68 73 -10 0
-4 -101 7 -114 7 -8 1 -11 -20 -11 -16 0 -29 3 -29 8 0 4 5 7 10 7 17 0 12
136 -6 154 -14 15 -13 16 10 16 14 0 26 -3 26 -7z m278 -2 c-1 -3 4 -19 11
-36 34 -87 53 -125 63 -125 4 0 8 -4 8 -8 0 -12 -45 -8 -46 4 0 5 -6 21 -12
37 -9 21 -18 27 -41 27 -31 0 -65 -38 -56 -62 4 -9 -3 -13 -20 -13 -27 0 -33
10 -11 18 8 3 28 41 46 85 18 43 38 79 46 79 7 0 12 -3 12 -6z"/>
<path d="M1313 1397 c-14 -23 107 -31 130 -8 6 6 9 11 7 12 -40 4 -133 2 -137
-4z"/>
<path d="M1169 1071 c-20 -16 -24 -28 -24 -71 1 -46 5 -56 29 -75 81 -65 164
57 93 136 -28 31 -67 35 -98 10z"/>
<path d="M976 754 c-8 -27 -4 -38 17 -41 20 -3 22 16 3 42 -13 18 -14 18 -20
-1z"/>
<path d="M1422 753 c-17 -30 -15 -39 8 -40 21 -2 24 9 11 42 -8 19 -8 19 -19
-2z"/>
<path d="M1862 753 c-17 -30 -15 -39 8 -40 21 -2 24 9 11 42 -8 19 -8 19 -19
-2z"/>
<path d="M1053 1983 c1 -17 4 -20 19 -12 21 12 24 24 4 16 -8 -3 -17 -1 -19 6
-3 7 -4 2 -4 -10z"/>
<path d="M1306 1954 c-11 -8 -16 -14 -10 -14 13 0 39 18 34 24 -3 2 -14 -2
-24 -10z"/>
<path d="M1510 1962 c0 -21 63 -29 89 -13 9 6 -1 9 -28 9 -22 0 -45 4 -51 7
-5 3 -10 2 -10 -3z"/>
<path d="M1155 1949 c7 -10 79 -9 95 1 10 7 -2 9 -42 8 -31 -2 -55 -5 -53 -9z"/>
<path d="M1450 1950 c17 -11 47 -14 36 -3 -3 4 -17 8 -29 10 -17 2 -19 1 -7
-7z"/>
<path d="M1070 1931 c-8 -6 -17 -8 -21 -5 -4 2 -10 0 -13 -5 -4 -5 7 -7 24 -5
16 3 40 -1 52 -8 13 -6 34 -13 48 -15 22 -2 21 0 -7 12 -17 8 -34 19 -38 25
-8 12 -25 13 -45 1z"/>
<path d="M1621 1920 c-13 -12 -30 -19 -38 -16 -7 3 -13 1 -13 -4 0 -15 31 -12
65 6 16 8 37 13 47 11 10 -3 20 -2 23 2 2 4 -1 8 -8 9 -7 0 -21 3 -32 6 -12 4
-29 -2 -44 -14z"/>
</g>
</svg>
