<?xml version="1.0" encoding="iso-8859-1"?>
<!-- Generator: Adobe Illustrator 19.0.0, SVG Export Plug-In . SVG Version: 6.00 Build 0)  -->
<svg version="1.1" id="Layer_1" xmlns="http://www.w3.org/2000/svg" xmlns:xlink="http://www.w3.org/1999/xlink" x="0px" y="0px"
	 viewBox="0 0 512 512" style="enable-background:new 0 0 512 512;" xml:space="preserve">
<g>
	<g>
		<g>
			<path d="M119.467,247.467V384c0,4.71,3.823,8.533,8.533,8.533s8.533-3.823,8.533-8.533V247.467c0-4.71-3.823-8.533-8.533-8.533
				S119.467,242.756,119.467,247.467z"/>
			<path d="M25.6,85.333h76.8v51.2H76.8c-4.71,0-8.533,3.823-8.533,8.533c0,4.71,3.823,8.533,8.533,8.533h25.6v42.667
				c0,14.114,11.486,25.6,25.6,25.6s25.6-11.486,25.6-25.6V85.333h45.585c7.134,20.139,26.428,34.133,48.282,34.133
				s41.148-13.995,48.282-34.133H384c4.71,0,8.533-3.823,8.533-8.533c0-37.641-30.626-68.267-68.267-68.267
				c-16.811,0-32.998,6.272-45.466,17.425c-9.378-5.768-20.258-8.892-31.334-8.892c-14.754,0-28.954,5.564-39.817,15.292
				C193.382,12.143,170.334,0,145.067,0c-19.098,0-37.06,6.912-51.174,19.575c-5.547-1.664-11.281-2.509-17.092-2.509
				c-32.939,0-59.733,26.795-59.733,59.733C17.067,81.51,20.89,85.333,25.6,85.333z M76.8,34.133c5.487,0,10.88,1.058,16.026,3.14
				c3.217,1.306,6.912,0.538,9.336-1.971c11.383-11.759,26.615-18.236,42.906-18.236c22.827,0,43.324,12.757,53.495,33.297
				c1.323,2.671,3.942,4.454,6.912,4.71c2.927,0.247,5.845-1.05,7.612-3.448c8.158-11.119,20.693-17.493,34.381-17.493
				c9.899,0,19.2,3.311,26.897,9.566c3.541,2.876,8.721,2.466,11.75-0.939c9.737-10.906,23.637-17.161,38.153-17.161
				c25.327,0,46.413,18.483,50.492,42.667h-85.487c-4.053,0-7.552,2.859-8.363,6.835c-3.217,15.821-17.271,27.298-33.442,27.298
				s-30.225-11.477-33.442-27.298c-0.811-3.977-4.309-6.835-8.363-6.835h-60.595c-4.71,0-8.533,3.823-8.533,8.533v119.467
				c0,4.702-3.831,8.533-8.533,8.533c-4.702,0-8.533-3.831-8.533-8.533V76.8c0-4.71-3.823-8.533-8.533-8.533H34.995
				C38.955,48.819,56.192,34.133,76.8,34.133z"/>
			<path d="M375.467,428.126V152.141c9.933-3.524,17.067-13.013,17.067-24.141v-17.067c0-4.71-3.823-8.533-8.533-8.533
				s-8.533,3.823-8.533,8.533V128c0,4.702-3.831,8.533-8.533,8.533H179.2c-4.71,0-8.533,3.823-8.533,8.533
				c0,4.71,3.823,8.533,8.533,8.533h179.2v281.6c0,4.71,3.823,8.533,8.533,8.533c4.702,0,8.533,3.831,8.533,8.533V486.4
				c0,4.702-3.831,8.533-8.533,8.533H42.667c-4.702,0-8.533-3.831-8.533-8.533v-34.133c0-4.702,3.831-8.533,8.533-8.533H332.8
				c4.71,0,8.533-3.823,8.533-8.533s-3.823-8.533-8.533-8.533H51.2v-281.6c0-4.71-3.823-8.533-8.533-8.533
				c-4.702,0-8.533-3.831-8.533-8.533v-17.067c0-4.71-3.823-8.533-8.533-8.533s-8.533,3.823-8.533,8.533V128
				c0,11.128,7.134,20.617,17.067,24.141v275.985c-9.933,3.524-17.067,13.013-17.067,24.141V486.4c0,14.114,11.486,25.6,25.6,25.6
				h324.267c14.114,0,25.6-11.486,25.6-25.6v-34.133C392.533,441.139,385.4,431.65,375.467,428.126z"/>
			<path d="M452.267,170.667h-51.2c-4.71,0-8.533,3.823-8.533,8.533s3.823,8.533,8.533,8.533h51.2c14.114,0,25.6,11.486,25.6,25.6
				v153.6c0,14.114-11.486,25.6-25.6,25.6h-51.2c-4.71,0-8.533,3.823-8.533,8.533s3.823,8.533,8.533,8.533h51.2
				c23.526,0,42.667-19.14,42.667-42.667v-153.6C494.933,189.807,475.793,170.667,452.267,170.667z"/>
			<path d="M401.067,358.4c-4.71,0-8.533,3.823-8.533,8.533s3.823,8.533,8.533,8.533h51.2c4.71,0,8.533-3.823,8.533-8.533v-153.6
				c0-4.71-3.823-8.533-8.533-8.533h-51.2c-4.71,0-8.533,3.823-8.533,8.533c0,4.71,3.823,8.533,8.533,8.533h42.667V358.4H401.067z"
				/>
			<path d="M213.333,384V196.267c0-4.71-3.823-8.533-8.533-8.533s-8.533,3.823-8.533,8.533V384c0,4.71,3.823,8.533,8.533,8.533
				S213.333,388.71,213.333,384z"/>
			<path d="M290.133,384V196.267c0-4.71-3.823-8.533-8.533-8.533s-8.533,3.823-8.533,8.533V384c0,4.71,3.823,8.533,8.533,8.533
				S290.133,388.71,290.133,384z"/>
		</g>
	</g>
</g>
<g>
</g>
<g>
</g>
<g>
</g>
<g>
</g>
<g>
</g>
<g>
</g>
<g>
</g>
<g>
</g>
<g>
</g>
<g>
</g>
<g>
</g>
<g>
</g>
<g>
</g>
<g>
</g>
<g>
</g>
</svg>
