<?xml version="1.0" encoding="iso-8859-1"?>
<!-- Generator: Adobe Illustrator 16.0.0, SVG Export Plug-In . SVG Version: 6.00 Build 0)  -->
<!DOCTYPE svg PUBLIC "-//W3C//DTD SVG 1.1//EN" "http://www.w3.org/Graphics/SVG/1.1/DTD/svg11.dtd">
<svg version="1.1" id="Capa_1" xmlns="http://www.w3.org/2000/svg" xmlns:xlink="http://www.w3.org/1999/xlink" x="0px" y="0px"
	 width="508.811px" height="508.811px" viewBox="0 0 508.811 508.811" style="enable-background:new 0 0 508.811 508.811;"
	 xml:space="preserve">
<g>
	<g id="Layer_2_26_">
		<path d="M484.828,415.657l23.982-325.125H250.184l36.949,325.125H484.828z M484.188,119.22l-12.316,48.147
			c-98.521-49.266-123.156,49.821-184.738,0.555l-12.316-48.702H484.188z"/>
		<path d="M191.594,378.603c52.909-52.909,52.909-138.685,0-191.584l-17.729,17.729c45.47,51.685,45.977,110.772,0.306,156.443
			c-45.67,45.67-104.757,45.154-156.442-0.307L0,378.612C52.909,431.502,138.694,431.502,191.594,378.603z"/>
		<path d="M156.758,343.767c12.507-12.508,19.918-25.006,23.763-37.15l-81.396-27.129l-9.974-3.328l3.328,9.974l27.129,81.396
			C131.762,363.685,144.25,356.274,156.758,343.767z"/>
		<path d="M68.649,292.54l-42.515,42.515c2.726,2.726,5.795,5.547,9.065,8.349c15.271,13.129,36.089,25.809,59.469,27.186
			L73,305.593L68.649,292.54z"/>
		<path d="M156.404,222.198c-2.812-3.271-5.623-6.34-8.358-9.065l-42.515,42.515l13.062,4.352l64.996,21.659
			C182.213,258.287,169.534,237.479,156.404,222.198z"/>
	</g>
</g>
<g>
</g>
<g>
</g>
<g>
</g>
<g>
</g>
<g>
</g>
<g>
</g>
<g>
</g>
<g>
</g>
<g>
</g>
<g>
</g>
<g>
</g>
<g>
</g>
<g>
</g>
<g>
</g>
<g>
</g>
</svg>
