<?xml version="1.0" encoding="iso-8859-1"?>
<!-- Generator: Adobe Illustrator 19.0.0, SVG Export Plug-In . SVG Version: 6.00 Build 0)  -->
<svg version="1.1" id="Layer_1" xmlns="http://www.w3.org/2000/svg" xmlns:xlink="http://www.w3.org/1999/xlink" x="0px" y="0px"
	 viewBox="0 0 512 512" style="enable-background:new 0 0 512 512;" xml:space="preserve">
<g>
	<g>
		<path d="M353.041,412.72L301.088,91.438l21.092-78.27c0.845-3.139,0.182-6.493-1.796-9.074C318.407,1.513,315.341,0,312.091,0
			H199.91c-3.251,0-6.316,1.513-8.294,4.094c-1.978,2.581-2.64,5.935-1.796,9.074l21.092,78.27l-51.953,321.283
			c-0.535,3.304,0.547,6.664,2.907,9.036l86.727,87.163c1.962,1.972,4.629,3.079,7.408,3.079c2.779,0,5.446-1.108,7.407-3.079
			l86.727-87.163C352.495,419.384,353.576,416.024,353.041,412.72z M298.454,20.898l-16.044,59.537h-52.816l-16.045-59.537H298.454z
			 M281.89,103.624l-61.828,62.14l10.419-64.429h51.039L281.89,103.624z M214.341,201.143l71.671-72.032l4.875,30.15l-83.313,83.731
			L214.341,201.143z M201.854,278.371l93.155-93.625l4.169,25.785L196.064,314.164L201.854,278.371z M190.344,349.541L303.3,236.018
			l6.414,39.665L181.442,404.601L190.344,349.541z M256.001,486.736l-22.908-23.023l49.448-49.696
			c4.07-4.09,4.054-10.706-0.038-14.777c-4.09-4.07-10.706-4.054-14.777,0.038L218.352,448.9l-25.754-25.883L313.834,301.17
			l17.728,109.627L256.001,486.736z"/>
	</g>
</g>
<g>
	<g>
		<path d="M309.012,372.597c-4.092-4.071-10.707-4.054-14.778,0.038l-3.221,3.237c-4.07,4.092-4.054,10.707,0.038,14.778
			c2.039,2.028,4.704,3.042,7.37,3.042c2.682,0,5.366-1.027,7.407-3.078l3.221-3.239
			C313.12,383.284,313.102,376.667,309.012,372.597z"/>
	</g>
</g>
<g>
</g>
<g>
</g>
<g>
</g>
<g>
</g>
<g>
</g>
<g>
</g>
<g>
</g>
<g>
</g>
<g>
</g>
<g>
</g>
<g>
</g>
<g>
</g>
<g>
</g>
<g>
</g>
<g>
</g>
</svg>
