<?xml version="1.0" encoding="iso-8859-1"?>
<!-- Generator: Adobe Illustrator 19.0.0, SVG Export Plug-In . SVG Version: 6.00 Build 0)  -->
<svg version="1.1" id="Layer_1" xmlns="http://www.w3.org/2000/svg" xmlns:xlink="http://www.w3.org/1999/xlink" x="0px" y="0px"
	 viewBox="0 0 511.999 511.999" style="enable-background:new 0 0 511.999 511.999;" xml:space="preserve">
<g>
	<g>
		<g>
			<path d="M348.049,184.098c-17.316,0-34.01,2.708-49.691,7.705c-28.61-49.317-81.176-79.744-138.409-79.744
				C71.752,112.06,0,183.812,0,272.008s71.752,159.949,159.949,159.949c15.174,0,29.861-2.124,43.78-6.091
				c13.243,24.525,32.516,45.318,56.113,60.405c26.322,16.831,56.824,25.727,88.207,25.727c90.404,0,163.951-73.548,163.951-163.951
				C512,257.647,438.452,184.098,348.049,184.098z M159.948,416.222c-79.52,0-144.212-64.694-144.212-144.214
				s64.693-144.213,144.213-144.213c50.706,0,97.339,26.501,123.422,69.611c-3.942,1.699-7.804,3.551-11.581,5.544
				c-23.871-38.725-65.795-62.376-111.841-62.376c-72.472,0-131.433,58.961-131.433,131.434s58.961,131.434,131.433,131.434
				c72.473,0,131.434-58.961,131.434-131.434c0-9.092-0.944-18.128-2.784-26.956c3.8-2.202,7.734-4.194,11.782-5.972
				c2.506,10.741,3.781,21.792,3.781,32.928C304.161,351.529,239.467,416.222,159.948,416.222z M188.124,384.228
				c-9.023,2.266-18.46,3.477-28.176,3.477c-63.796,0-115.697-51.902-115.697-115.698s51.902-115.698,115.697-115.698
				c40.429,0.001,77.246,20.714,98.29,54.646c-44.618,29.329-74.14,79.824-74.14,137.093
				C184.097,360.28,185.461,372.406,188.124,384.228z M229.099,348.049c0-37.779,17.706-71.497,45.253-93.302
				c0.851,5.693,1.295,11.463,1.295,17.262c0,37.415-17.857,70.733-45.491,91.894C229.458,358.663,229.099,353.362,229.099,348.049z
				 M315.26,233.697c10.419-2.992,21.42-4.598,32.789-4.598c65.589,0,118.95,53.36,118.95,118.949s-53.361,118.95-118.95,118.95
				c-42.729,0-81.993-23.04-103.077-59.57c44.977-28.34,74.927-78.444,74.927-135.419
				C319.898,259.044,318.328,246.178,315.26,233.697z M348.049,496.264c-28.373,0-55.944-8.039-79.73-23.248
				c-20.591-13.167-37.541-31.133-49.464-52.299c4.229-1.681,8.365-3.544,12.408-5.566c23.852,41.44,68.352,67.584,116.786,67.584
				c74.266,0,134.686-60.42,134.686-134.686s-60.42-134.685-134.686-134.685s-134.686,60.419-134.686,134.685
				c0,8.504,0.807,16.988,2.381,25.285c-4.058,2.243-8.263,4.249-12.598,6.001c-2.198-10.233-3.312-20.714-3.312-31.285
				c0-81.726,66.489-148.215,148.215-148.215s148.215,66.489,148.215,148.215C496.264,429.775,429.775,496.264,348.049,496.264z"/>
			<path d="M148.491,88.148h-4.742v15.736h32.521V88.148h-4.863l33.726-33.724c12.429-12.43,12.429-32.655,0-45.086h-0.001
				C199.11,3.316,191.104,0,182.589,0c-8.516,0-16.522,3.316-22.542,9.337l-0.098,0.096l-0.096-0.096
				c-12.429-12.43-32.656-12.43-45.087,0c-12.429,12.43-12.429,32.655,0,45.086L148.491,88.148z M125.893,20.464
				c3.148-3.147,7.282-4.721,11.417-4.721c4.133,0,8.269,1.574,11.416,4.721l11.223,11.223l11.224-11.223
				c3.049-3.05,7.103-4.728,11.416-4.728c4.312,0,8.367,1.68,11.416,4.728c6.294,6.294,6.294,16.538,0,22.832l-34.056,34.056
				l-34.055-34.056C119.599,37.002,119.599,26.76,125.893,20.464z"/>
			<rect x="183.619" y="88.153" width="16.785" height="15.736"/>
			<rect x="119.626" y="88.153" width="16.785" height="15.736"/>
			<path d="M340.942,160.534h-5.212v15.736h32.521v-15.736h-5.089l34.073-34.073c12.429-12.43,12.429-32.655,0-45.086h-0.001
				c-12.429-12.43-32.655-12.43-45.087,0l-0.095,0.096l-0.096-0.096c-6.022-6.022-14.027-9.338-22.544-9.338
				c-8.515,0-16.522,3.316-22.544,9.338c-12.429,12.43-12.429,32.655,0.001,45.086L340.942,160.534z M317.994,92.503
				c3.05-3.05,7.104-4.728,11.417-4.728c4.313,0,8.367,1.68,11.417,4.729l11.223,11.223l11.222-11.223
				c6.297-6.294,16.539-6.294,22.833,0c6.294,6.294,6.294,16.538,0,22.832l-34.055,34.055l-34.056-34.055
				C311.701,109.04,311.701,98.798,317.994,92.503z"/>
			<rect x="375.588" y="160.539" width="16.785" height="15.736"/>
			<rect x="311.595" y="160.539" width="16.785" height="15.736"/>
		</g>
	</g>
</g>
<g>
</g>
<g>
</g>
<g>
</g>
<g>
</g>
<g>
</g>
<g>
</g>
<g>
</g>
<g>
</g>
<g>
</g>
<g>
</g>
<g>
</g>
<g>
</g>
<g>
</g>
<g>
</g>
<g>
</g>
</svg>
